<svg xmlns="http://www.w3.org/2000/svg" width="24" height="25" viewBox="0 0 24 25" fill="none">
  <path d="M15 17.5H20L18.5951 16.0951C18.2141 15.7141 18 15.1973 18 14.6585V11.5C18 8.88757 16.3304 6.66509 14 5.84142V5.5C14 4.39543 13.1046 3.5 12 3.5C10.8954 3.5 10 4.39543 10 5.5V5.84142C7.66962 6.66509 6 8.88757 6 11.5V14.6585C6 15.1973 5.78595 15.7141 5.40493 16.0951L4 17.5H9M15 17.5V18.5C15 20.1569 13.6569 21.5 12 21.5C10.3431 21.5 9 20.1569 9 18.5V17.5M15 17.5H9" stroke="#0073FF" stroke-width="2" stroke-linecap="round" stroke-linejoin="round"/>
  <path d="M21.5 7C21.5 9.20914 19.7091 11 17.5 11C15.2909 11 13.5 9.20914 13.5 7C13.5 4.79086 15.2909 3 17.5 3C19.7091 3 21.5 4.79086 21.5 7Z" fill="#E42B2B" stroke="white"/>
</svg>