<svg xmlns="http://www.w3.org/2000/svg" width="17" height="16" viewBox="0 0 17 16" fill="none">
  <g clip-path="url(#clip0_1_955)">
    <path d="M8.83337 4.00001H8.90004C9.74011 3.82739 10.4933 3.36627 11.0291 2.69657C11.5648 2.02687 11.8494 1.19082 11.8334 0.333345C11.8331 0.283277 11.8216 0.233904 11.7997 0.188892C11.7778 0.143881 11.746 0.104387 11.7067 0.0733452C11.6696 0.0414093 11.6257 0.0182367 11.5784 0.00554278C11.5311 -0.00715118 11.4815 -0.00904146 11.4334 1.18911e-05C10.5921 0.172838 9.83807 0.634944 9.30218 1.30602C8.76629 1.9771 8.48247 2.81473 8.50004 3.67335C8.50004 3.76175 8.53516 3.84654 8.59767 3.90905C8.66018 3.97156 8.74496 4.00668 8.83337 4.00668V4.00001Z" fill="#303C42"/>
    <path d="M14.9466 11.02C14.418 10.8035 13.9661 10.4339 13.6489 9.95878C13.3318 9.48364 13.1638 8.92459 13.1666 8.35333C13.1667 7.83412 13.3027 7.32397 13.5612 6.87367C13.8197 6.42337 14.1916 6.0486 14.6399 5.78667C14.6831 5.76178 14.7202 5.72753 14.7484 5.68643C14.7766 5.64532 14.7952 5.59842 14.8029 5.54916C14.8106 5.49991 14.8071 5.44956 14.7927 5.40182C14.7784 5.35409 14.7535 5.31018 14.7199 5.27333C14.3502 4.87647 13.9037 4.55893 13.4074 4.34004C12.9112 4.12114 12.3756 4.00545 11.8333 4C11.2955 4.01159 10.7653 4.12941 10.2733 4.34667C9.81943 4.54839 9.3298 4.65719 8.83325 4.66667C8.3367 4.65719 7.84708 4.54839 7.39325 4.34667C6.90119 4.12941 6.37102 4.01159 5.83325 4C5.42659 4 1.83325 4.13333 1.83325 8.66667C1.83325 12.3733 4.36659 16 5.83325 16C6.47893 16.0073 7.11837 15.873 7.70659 15.6067C8.05828 15.436 8.44247 15.3428 8.83325 15.3333C9.22403 15.3428 9.60823 15.436 9.95992 15.6067C10.5481 15.873 11.1876 16.0073 11.8333 16C13.0266 16 14.4333 13.6467 15.1666 11.44C15.18 11.398 15.1849 11.3537 15.1811 11.3098C15.1773 11.2659 15.1647 11.2231 15.1443 11.1841C15.1238 11.145 15.0958 11.1104 15.0619 11.0822C15.0279 11.0541 14.9888 11.0329 14.9466 11.02Z" fill="#303C42"/>
  </g>
  <defs>
    <clipPath id="clip0_1_955">
      <rect width="16" height="16" fill="white" transform="translate(0.5)"/>
    </clipPath>
  </defs>
</svg>