<svg xmlns="http://www.w3.org/2000/svg" width="24" height="25" viewBox="0 0 24 25" fill="none">
  <path fill-rule="evenodd" clip-rule="evenodd" d="M7.1999 3.15002C6.53716 3.15002 5.9999 3.68728 5.9999 4.35002V5.55002H4.7999C3.47442 5.55002 2.3999 6.62454 2.3999 7.95002V19.95C2.3999 21.2755 3.47442 22.35 4.7999 22.35H19.1999C20.5254 22.35 21.5999 21.2755 21.5999 19.95V7.95002C21.5999 6.62454 20.5254 5.55002 19.1999 5.55002H17.9999V4.35002C17.9999 3.68728 17.4626 3.15002 16.7999 3.15002C16.1372 3.15002 15.5999 3.68728 15.5999 4.35002V5.55002H8.3999V4.35002C8.3999 3.68728 7.86264 3.15002 7.1999 3.15002ZM7.1999 9.15002C6.53716 9.15002 5.9999 9.68728 5.9999 10.35C5.9999 11.0128 6.53716 11.55 7.1999 11.55H16.7999C17.4626 11.55 17.9999 11.0128 17.9999 10.35C17.9999 9.68728 17.4626 9.15002 16.7999 9.15002H7.1999Z" fill="#0073FF"/>
</svg>