<svg xmlns="http://www.w3.org/2000/svg" width="15" height="16" viewBox="0 0 15 16" fill="none">
  <path d="M11.6374 8.05028C11.6569 7.86273 11.6667 7.70297 11.6667 7.57099C11.6667 6.89025 11.5592 6.88678 11.1458 6.88678H8.68815C8.92578 6.47001 9.0625 6.03934 9.0625 5.60172C9.0625 4.28541 7.19727 3.64288 7.19727 2.54537C7.19727 2.13902 7.36328 1.8056 7.5 1.33325C6.63737 1.57637 5.95703 2.49675 5.95703 3.4727C5.95703 5.15022 7.78971 5.16411 7.78971 6.41791C7.78971 6.5742 7.74414 6.71313 7.72135 6.88678H5.90169C5.92773 6.78259 5.94401 6.67145 5.94401 6.56378C5.94401 5.77191 4.67122 5.38639 4.67122 4.72997C4.67122 4.48685 4.70378 4.28541 4.77539 4.00061C4.35547 4.17774 3.85417 4.69524 3.85417 5.27872C3.85417 6.20605 4.89258 6.29635 5.05208 6.88678H1.77083C1.35742 6.88678 1.25 6.89025 1.25 7.57099C1.25 8.25172 1.50065 9.70002 2.17122 11.4262C2.8418 13.1523 3.61654 13.9129 4.16341 14.42L4.16667 14.413C4.33268 14.5728 4.55078 14.6666 4.79167 14.6666H8.125C8.36589 14.6666 8.58398 14.5728 8.75 14.413L8.75325 14.42C9.04622 14.1491 9.4043 13.8018 9.77539 13.2773C9.92838 13.3468 10.0944 13.4058 10.2767 13.451C10.5501 13.5205 10.8236 13.5552 11.084 13.5552C11.8652 13.5552 12.5684 13.2357 13.0632 12.6591C13.4993 12.152 13.75 11.4644 13.75 10.7767C13.75 9.42564 12.8385 8.29687 11.6374 8.05028ZM11.084 12.4542C10.804 12.4542 10.5762 12.4125 10.3646 12.3083C10.4948 12.0305 10.6217 11.7561 10.7454 11.4366C11.0742 10.5891 11.3021 9.80421 11.4486 9.15126C12.1647 9.30061 12.7083 9.97787 12.7083 10.7871C12.7083 11.5755 12.1484 12.4542 11.084 12.4542Z" fill="#5A6778"/>
</svg>