<svg xmlns="http://www.w3.org/2000/svg" width="24" height="25" viewBox="0 0 24 25" fill="none">
  <path d="M3.6001 14.65V18.25C3.6001 20.2383 7.36091 21.85 12.0001 21.85C16.6393 21.85 20.4001 20.2383 20.4001 18.25V14.65C20.4001 16.6383 16.6393 18.25 12.0001 18.25C7.36091 18.25 3.6001 16.6383 3.6001 14.65Z" fill="#48BB78"/>
  <path d="M3.6001 8.65002V12.25C3.6001 14.2383 7.36091 15.85 12.0001 15.85C16.6393 15.85 20.4001 14.2383 20.4001 12.25V8.65002C20.4001 10.6383 16.6393 12.25 12.0001 12.25C7.36091 12.25 3.6001 10.6383 3.6001 8.65002Z" fill="#48BB78"/>
  <path d="M20.4001 6.25002C20.4001 8.23825 16.6393 9.85002 12.0001 9.85002C7.36091 9.85002 3.6001 8.23825 3.6001 6.25002C3.6001 4.2618 7.36091 2.65002 12.0001 2.65002C16.6393 2.65002 20.4001 4.2618 20.4001 6.25002Z" fill="#48BB78"/>
</svg>