<svg xmlns="http://www.w3.org/2000/svg" width="16" height="16" viewBox="0 0 16 16" fill="none">
  <path fill-rule="evenodd" clip-rule="evenodd" d="M4.80001 1.59998C3.91636 1.59998 3.20001 2.31632 3.20001 3.19998V12.8C3.20001 13.6836 3.91636 14.4 4.80001 14.4H11.2C12.0837 14.4 12.8 13.6836 12.8 12.8V5.93135C12.8 5.507 12.6314 5.10003 12.3314 4.79998L9.60001 2.0686C9.29995 1.76855 8.89299 1.59998 8.46864 1.59998H4.80001ZM6.40001 9.59998C6.40001 9.15815 6.04184 8.79998 5.60001 8.79998C5.15818 8.79998 4.80001 9.15815 4.80001 9.59998V12C4.80001 12.4418 5.15818 12.8 5.60001 12.8C6.04184 12.8 6.40001 12.4418 6.40001 12V9.59998ZM8.00001 7.19998C8.44184 7.19998 8.80001 7.55815 8.80001 7.99998V12C8.80001 12.4418 8.44184 12.8 8.00001 12.8C7.55818 12.8 7.20001 12.4418 7.20001 12V7.99998C7.20001 7.55815 7.55818 7.19998 8.00001 7.19998ZM11.2 6.39998C11.2 5.95815 10.8418 5.59998 10.4 5.59998C9.95818 5.59998 9.60001 5.95815 9.60001 6.39998V12C9.60001 12.4418 9.95818 12.8 10.4 12.8C10.8418 12.8 11.2 12.4418 11.2 12V6.39998Z" fill="#44444F"/>
</svg>