<svg xmlns="http://www.w3.org/2000/svg" width="16" height="16" viewBox="0 0 16 16" fill="none">
  <path d="M3.33317 7.99992H3.33984M7.99984 7.99992H8.0065M12.6665 7.99992H12.6732M3.99984 7.99992C3.99984 8.36811 3.70136 8.66659 3.33317 8.66659C2.96498 8.66659 2.6665 8.36811 2.6665 7.99992C2.6665 7.63173 2.96498 7.33325 3.33317 7.33325C3.70136 7.33325 3.99984 7.63173 3.99984 7.99992ZM8.6665 7.99992C8.6665 8.36811 8.36803 8.66659 7.99984 8.66659C7.63165 8.66659 7.33317 8.36811 7.33317 7.99992C7.33317 7.63173 7.63165 7.33325 7.99984 7.33325C8.36803 7.33325 8.6665 7.63173 8.6665 7.99992ZM13.3332 7.99992C13.3332 8.36811 13.0347 8.66659 12.6665 8.66659C12.2983 8.66659 11.9998 8.36811 11.9998 7.99992C11.9998 7.63173 12.2983 7.33325 12.6665 7.33325C13.0347 7.33325 13.3332 7.63173 13.3332 7.99992Z" stroke="#5A6778" stroke-linecap="round" stroke-linejoin="round"/>
</svg>