<svg xmlns="http://www.w3.org/2000/svg" width="24" height="25" viewBox="0 0 24 25" fill="none">
  <path fill-rule="evenodd" clip-rule="evenodd" d="M21.5999 9.85002C21.5999 13.8265 18.3764 17.05 14.3999 17.05C13.6725 17.05 12.9703 16.9422 12.3084 16.7415L9.5999 19.45H7.1999V21.85H2.3999V17.05L7.50839 11.9415C7.30777 11.2796 7.1999 10.5774 7.1999 9.85002C7.1999 5.87357 10.4235 2.65002 14.3999 2.65002C18.3764 2.65002 21.5999 5.87357 21.5999 9.85002ZM14.3999 5.05002C13.7372 5.05002 13.1999 5.58728 13.1999 6.25002C13.1999 6.91277 13.7372 7.45002 14.3999 7.45002C15.7254 7.45002 16.7999 8.52454 16.7999 9.85002C16.7999 10.5128 17.3372 11.05 17.9999 11.05C18.6626 11.05 19.1999 10.5128 19.1999 9.85002C19.1999 7.19906 17.0509 5.05002 14.3999 5.05002Z" fill="#EE5D50"/>
</svg>