<svg xmlns="http://www.w3.org/2000/svg" width="17" height="16" viewBox="0 0 17 16" fill="none">
  <g clip-path="url(#clip0_1_947)">
    <path d="M9 7.5H16.5V0.5C16.5 0.367392 16.4473 0.240215 16.3536 0.146447C16.2598 0.0526784 16.1326 0 16 0L9 0V7.5Z" fill="#4CAF50"/>
    <path d="M8 7.5V0H1C0.867392 0 0.740215 0.0526784 0.646447 0.146447C0.552678 0.240215 0.5 0.367392 0.5 0.5L0.5 7.5H8Z" fill="#F44336"/>
    <path d="M8 8.5H0.5V15.5C0.5 15.6326 0.552678 15.7598 0.646447 15.8536C0.740215 15.9473 0.867392 16 1 16H8V8.5Z" fill="#2196F3"/>
    <path d="M9 8.5V16H16C16.1326 16 16.2598 15.9473 16.3536 15.8536C16.4473 15.7598 16.5 15.6326 16.5 15.5V8.5H9Z" fill="#FFC107"/>
  </g>
  <defs>
    <clipPath id="clip0_1_947">
      <rect width="16" height="16" fill="white" transform="translate(0.5)"/>
    </clipPath>
  </defs>
</svg>