<svg xmlns="http://www.w3.org/2000/svg" width="16" height="16" viewBox="0 0 16 16" fill="none">
  <path d="M8.71565 2.0422C8.58013 1.77118 8.30312 1.59998 8.00011 1.59998C7.69709 1.59998 7.42008 1.77118 7.28456 2.0422L1.68456 13.2422C1.54268 13.526 1.58189 13.8668 1.7845 14.1109C1.98711 14.355 2.31484 14.4564 2.61988 14.3692L6.61987 13.2263C6.96332 13.1282 7.2001 12.8143 7.2001 12.4571V8.79998C7.2001 8.35815 7.55827 7.99998 8.0001 7.99998C8.44193 7.99998 8.8001 8.35815 8.8001 8.79998V12.4571C8.8001 12.8143 9.03688 13.1282 9.38032 13.2263L13.3803 14.3692C13.6854 14.4564 14.0131 14.355 14.2157 14.1109C14.4183 13.8668 14.4575 13.526 14.3156 13.2422L8.71565 2.0422Z" fill="white"/>
</svg>