<svg xmlns="http://www.w3.org/2000/svg" width="25" height="25" viewBox="0 0 25 25" fill="none">
  <path fill-rule="evenodd" clip-rule="evenodd" d="M22.3611 12.75C22.3611 18.052 18.0631 22.35 12.7611 22.35C7.4592 22.35 3.16113 18.052 3.16113 12.75C3.16113 7.44809 7.4592 3.15002 12.7611 3.15002C18.0631 3.15002 22.3611 7.44809 22.3611 12.75ZM12.7611 9.15002C12.3185 9.15002 11.9303 9.38908 11.721 9.7509C11.3891 10.3246 10.655 10.5206 10.0814 10.1888C9.50768 9.8569 9.31165 9.12283 9.6435 8.54915C10.2641 7.47624 11.4271 6.75002 12.7611 6.75002C14.7494 6.75002 16.3611 8.3618 16.3611 10.35C16.3611 11.9175 15.3594 13.251 13.9611 13.7452V13.95C13.9611 14.6128 13.4239 15.15 12.7611 15.15C12.0984 15.15 11.5611 14.6128 11.5611 13.95V12.75C11.5611 12.0873 12.0984 11.55 12.7611 11.55C13.4239 11.55 13.9611 11.0128 13.9611 10.35C13.9611 9.68728 13.4239 9.15002 12.7611 9.15002ZM12.7611 18.75C13.4239 18.75 13.9611 18.2128 13.9611 17.55C13.9611 16.8873 13.4239 16.35 12.7611 16.35C12.0984 16.35 11.5611 16.8873 11.5611 17.55C11.5611 18.2128 12.0984 18.75 12.7611 18.75Z" fill="#0073FF"/>
</svg>