<svg xmlns="http://www.w3.org/2000/svg" width="24" height="25" viewBox="0 0 24 25" fill="none">
  <path d="M3.6001 5.54998C3.6001 4.88723 4.13736 4.34998 4.8001 4.34998H19.2001C19.8628 4.34998 20.4001 4.88723 20.4001 5.54998V7.94998C20.4001 8.61272 19.8628 9.14998 19.2001 9.14998H4.8001C4.13736 9.14998 3.6001 8.61272 3.6001 7.94998V5.54998Z" fill="#FFB547"/>
  <path d="M3.6001 12.75C3.6001 12.0872 4.13736 11.55 4.8001 11.55H12.0001C12.6628 11.55 13.2001 12.0872 13.2001 12.75V19.95C13.2001 20.6127 12.6628 21.15 12.0001 21.15H4.8001C4.13736 21.15 3.6001 20.6127 3.6001 19.95V12.75Z" fill="#FFB547"/>
  <path d="M16.8001 11.55C16.1374 11.55 15.6001 12.0872 15.6001 12.75V19.95C15.6001 20.6127 16.1374 21.15 16.8001 21.15H19.2001C19.8628 21.15 20.4001 20.6127 20.4001 19.95V12.75C20.4001 12.0872 19.8628 11.55 19.2001 11.55H16.8001Z" fill="#FFB547"/>
</svg>