<svg xmlns="http://www.w3.org/2000/svg" width="36" height="16" viewBox="0 0 36 16" fill="none">
  <path d="M12.9014 14.2018H15.8151L17.6879 2.54907H14.5664L12.9014 14.2018Z" fill="#1565C0"/>
  <path d="M10.4049 2.34056L7.69961 10.6641L7.18886 8.31956C5.73236 4.78181 3.23486 3.32531 3.23486 3.32531L5.82686 13.9933H8.94836L13.3186 2.33981H10.4049V2.34056ZM33.7111 2.34056H30.5896L25.8031 13.9941H28.7161L29.3401 12.3291H33.0856L33.5019 13.9941H36.0001L33.7111 2.34056ZM29.9656 10.2478L31.6306 5.87831L32.4631 10.2478H29.9656ZM21.6414 5.66981C21.6414 5.04581 22.0576 4.42106 23.5141 4.42106C24.5544 4.42106 25.5954 5.25356 25.5954 5.25356L26.2194 2.75681C26.2194 2.75681 24.7629 2.13281 23.5141 2.13281C20.3926 2.13281 18.9361 3.79781 18.9361 5.67056C18.9361 9.41606 23.0979 8.79206 23.0979 10.6648C23.0979 11.0811 22.8901 11.7051 21.2251 11.7051C19.5601 11.7051 18.3121 11.0811 18.3121 11.0811L17.8959 13.5778C17.8959 13.5778 18.9361 14.2018 21.0174 14.2018C22.8901 14.4096 25.8039 12.7453 25.8039 10.2478C25.8039 7.33481 21.6414 7.12706 21.6414 5.66981Z" fill="#1565C0"/>
  <path d="M7.28325 8.79132L6.243 3.58932C6.243 3.58932 5.82675 2.54907 4.578 2.54907C3.32925 2.54907 0 2.54907 0 2.54907C0 2.54907 6.0345 4.42182 7.28325 8.79132Z" fill="#FF9800"/>
</svg>